<svg id="svg" version="1.1" xmlns="http://www.w3.org/2000/svg" xmlns:xlink="http://www.w3.org/1999/xlink" width="250" height="250" viewBox="50, 50, 300,300" style="opacity: 1;"><g id="svgg"><path id="path0" d="M145.266 76.300 C 142.628 81.594,141.561 91.372,142.512 101.532 C 142.795 104.556,142.761 104.851,142.140 104.732 C 140.044 104.328,132.331 85.628,131.406 78.709 C 130.908 74.982,129.007 76.001,127.352 80.884 C 126.090 84.610,125.768 94.783,126.780 99.000 C 127.044 100.100,127.512 102.440,127.820 104.200 C 128.129 105.960,128.601 108.159,128.870 109.087 C 129.980 112.918,128.009 111.324,123.819 105.000 C 120.239 99.595,118.053 95.846,117.409 94.000 C 117.033 92.925,116.697 92.600,115.960 92.600 C 113.583 92.600,112.759 99.848,114.368 106.600 C 114.787 108.360,115.258 110.700,115.414 111.800 C 115.571 112.900,115.955 114.428,116.269 115.197 C 116.583 115.965,117.014 117.370,117.227 118.320 C 117.440 119.270,118.308 121.799,119.157 123.939 C 120.005 126.080,120.827 128.412,120.983 129.122 C 121.796 132.823,116.782 127.253,106.510 113.044 C 103.947 109.499,102.349 108.557,101.856 110.300 C 100.231 116.037,103.710 128.431,109.939 139.095 C 112.251 143.054,112.581 144.000,111.648 144.000 C 110.935 144.000,109.646 143.069,102.648 137.500 C 98.194 133.955,97.036 134.146,97.780 138.303 C 99.036 145.310,102.115 150.584,110.100 159.409 C 114.443 164.207,114.732 165.261,111.245 163.576 C 106.314 161.193,108.854 169.132,115.627 177.271 C 118.509 180.734,117.984 181.445,114.200 179.200 C 111.421 177.551,111.068 177.614,111.401 179.700 C 111.777 182.062,113.334 185.375,115.279 187.951 C 116.183 189.148,117.536 191.674,118.287 193.564 C 119.038 195.454,119.813 197.360,120.010 197.800 C 120.207 198.240,121.012 200.278,121.799 202.329 C 122.586 204.380,123.387 206.360,123.580 206.729 C 123.773 207.098,124.421 208.480,125.019 209.800 C 131.187 223.392,136.548 232.202,141.434 236.772 C 145.422 240.503,144.329 242.034,136.600 243.545 C 135.500 243.760,133.160 244.217,131.400 244.560 C 119.699 246.845,107.298 247.802,95.624 247.323 C 88.525 247.031,88.258 247.213,90.934 250.500 L 92.643 252.600 96.490 252.800 C 100.692 253.018,101.681 253.357,99.319 253.768 C 95.305 254.467,94.421 256.083,96.769 258.431 C 98.171 259.833,99.349 259.909,102.504 258.800 C 106.105 257.534,108.676 258.005,105.472 259.344 C 100.911 261.250,100.143 262.423,102.041 264.586 C 103.582 266.341,104.422 266.366,107.825 264.759 C 110.349 263.566,111.803 263.478,110.253 264.611 C 107.188 266.852,106.501 267.894,107.212 269.222 C 108.354 271.356,110.469 271.427,114.148 269.456 C 116.938 267.961,117.252 268.602,114.792 270.771 C 112.391 272.888,112.415 273.602,114.942 275.164 C 117.002 276.437,117.924 276.217,122.310 273.400 C 128.381 269.501,129.031 269.986,124.385 274.952 C 121.629 277.899,121.509 278.431,123.347 279.567 C 125.663 280.999,126.720 280.711,130.193 277.700 C 136.761 272.007,137.720 271.738,135.179 276.301 C 131.986 282.033,131.931 282.451,134.259 283.219 C 136.443 283.940,137.675 283.174,140.400 279.400 C 142.262 276.821,144.838 274.177,144.793 274.891 C 144.762 275.387,143.159 280.879,142.744 281.910 C 142.083 283.553,142.562 284.436,144.371 284.904 C 146.435 285.439,147.215 284.577,150.490 278.131 C 155.346 268.574,158.364 268.076,159.750 276.603 C 161.033 284.499,162.251 285.751,169.243 286.355 C 172.847 286.667,173.163 286.775,177.000 289.000 C 179.200 290.276,181.630 291.491,182.400 291.700 C 185.276 292.480,185.848 293.962,184.383 296.833 C 183.934 297.713,183.390 299.461,183.174 300.717 C 182.958 301.973,182.394 304.389,181.920 306.086 C 180.920 309.670,181.156 310.691,183.292 312.009 C 185.724 313.510,186.568 313.018,186.800 309.964 C 187.018 307.095,188.215 304.795,189.888 304.033 C 191.165 303.451,191.082 303.411,198.800 308.321 C 203.948 311.597,204.000 311.644,204.457 313.461 C 205.123 316.107,207.121 315.668,208.160 312.646 C 209.051 310.054,208.356 308.405,205.104 305.394 C 201.775 302.312,201.654 301.337,204.656 301.787 C 207.149 302.161,207.404 302.287,208.021 303.439 C 209.009 305.285,211.190 304.007,210.659 301.893 C 210.139 299.821,204.316 295.979,200.149 294.959 C 199.517 294.804,198.373 294.345,197.606 293.939 C 196.839 293.532,195.929 293.200,195.584 293.200 C 192.829 293.200,189.975 289.617,191.004 287.449 C 191.867 285.629,192.555 285.620,195.194 287.396 C 196.334 288.163,198.418 289.340,199.824 290.011 C 201.437 290.781,203.650 292.408,205.825 294.423 C 208.966 297.333,212.549 299.720,218.746 303.031 C 224.574 306.144,226.979 313.049,224.200 318.690 C 222.559 322.020,222.441 323.764,223.755 325.255 C 226.102 327.919,227.600 327.560,227.600 324.334 C 227.600 319.844,231.667 317.465,236.464 319.150 C 237.639 319.562,240.130 320.361,242.000 320.925 C 243.870 321.489,246.049 322.147,246.841 322.387 C 248.434 322.869,249.607 323.978,250.454 325.800 C 251.199 327.405,252.336 327.345,253.484 325.641 C 255.882 322.083,253.998 319.669,246.167 316.264 C 236.641 312.122,236.538 311.399,245.406 310.924 C 250.877 310.631,252.471 310.905,254.007 312.406 C 255.492 313.858,256.170 313.628,257.028 311.382 C 258.835 306.651,254.090 304.848,242.800 305.976 C 233.163 306.939,232.499 306.957,231.462 306.278 C 229.736 305.147,227.718 300.942,227.235 297.472 C 226.695 293.589,226.533 293.283,223.042 289.600 C 211.518 277.437,208.167 269.579,212.696 265.334 C 214.450 263.690,226.239 258.000,227.892 258.000 C 228.666 258.000,230.402 257.532,231.750 256.961 C 246.775 250.586,255.722 248.693,258.923 251.211 C 260.837 252.717,262.000 251.851,262.000 248.920 C 262.000 245.557,259.129 242.990,253.841 241.626 C 251.597 241.048,251.335 240.862,250.597 239.328 C 248.141 234.222,241.670 232.542,223.200 232.215 C 216.259 232.092,200.144 230.984,199.020 230.552 C 197.140 229.831,198.435 228.903,205.400 225.981 C 215.763 221.634,222.018 218.211,225.993 214.713 C 230.322 210.902,241.702 198.843,245.112 194.454 C 251.233 186.573,252.850 184.681,256.965 180.586 C 265.238 172.351,276.366 164.677,291.400 156.837 C 299.772 152.471,312.240 147.600,315.043 147.600 C 317.469 147.600,318.250 146.357,316.420 145.410 C 314.018 144.168,306.078 145.316,295.572 148.423 C 294.126 148.850,292.455 149.200,291.859 149.200 C 291.262 149.200,290.105 149.482,289.287 149.826 C 286.187 151.132,283.025 151.253,283.776 150.038 C 284.099 149.516,293.734 144.738,296.400 143.778 C 297.390 143.422,300.360 142.368,303.000 141.436 C 308.842 139.375,309.600 138.982,309.600 138.018 C 309.600 136.429,300.850 136.121,296.520 137.557 C 295.244 137.980,293.660 138.441,293.000 138.582 C 292.340 138.722,290.900 139.173,289.800 139.583 C 288.700 139.992,286.450 140.813,284.800 141.407 C 283.150 142.001,281.334 142.730,280.763 143.028 C 279.080 143.908,276.336 144.233,276.609 143.520 C 276.829 142.948,277.771 142.294,288.000 135.608 C 293.096 132.277,293.836 131.593,293.446 130.576 C 293.089 129.645,286.321 130.855,282.298 132.568 C 277.391 134.657,274.403 136.008,270.200 138.037 C 260.923 142.517,260.915 140.912,270.177 133.523 C 276.058 128.831,276.006 128.881,275.749 128.210 C 275.173 126.711,268.946 128.387,261.000 132.180 C 254.179 135.435,250.389 135.945,252.923 133.267 C 254.540 131.558,254.511 130.176,252.849 129.811 C 248.872 128.937,236.476 137.100,226.483 147.172 C 222.027 151.664,220.715 152.746,218.477 153.773 C 203.741 160.536,191.228 174.109,180.197 195.299 C 177.964 199.588,177.043 198.171,174.802 187.000 C 173.994 182.967,173.507 172.263,173.774 164.397 L 174.052 156.195 172.426 152.902 C 171.532 151.090,170.800 149.491,170.800 149.348 C 170.800 149.205,170.453 148.348,170.028 147.444 C 168.436 144.056,167.200 141.089,167.198 140.652 C 167.196 140.403,166.908 139.660,166.558 139.000 C 166.208 138.340,165.684 137.080,165.394 136.200 C 165.105 135.320,164.302 133.160,163.610 131.400 C 162.919 129.640,162.104 127.480,161.800 126.600 C 161.496 125.720,160.695 123.470,160.020 121.600 C 158.855 118.371,155.703 108.988,154.042 103.800 C 152.165 97.940,149.725 88.575,149.196 85.200 C 148.972 83.770,148.616 81.880,148.404 81.000 C 148.192 80.120,148.015 78.533,148.010 77.474 C 147.990 73.527,146.883 73.053,145.266 76.300 " stroke="none" fill="#06539c" fill-rule="evenodd"></path></g></svg>